<svg xmlns="http://www.w3.org/2000/svg" viewBox="0 0 320 180" width="320" height="180">
  <defs>
    <pattern id="dots" width="16" height="16" patternUnits="userSpaceOnUse">
      <circle cx="2" cy="2" r="1" fill="#e2e8f0"/>
    </pattern>
  </defs>
  <rect width="320" height="180" fill="#f8fafc" rx="10"/>
  <rect width="320" height="180" fill="url(#dots)" rx="10"/>
<text x="10" y="20" font-size="9.5" fill="#94a3b8" font-family="system-ui" font-weight="600">Uși față ×2</text><line x1="12" y1="140" x2="12" y2="126" stroke="#cbd5e0" stroke-width="1" stroke-dasharray="3,3"/><line x1="192" y1="140" x2="192" y2="126" stroke="#cbd5e0" stroke-width="1" stroke-dasharray="3,3"/><line x1="12" y1="104" x2="12" y2="90" stroke="#cbd5e0" stroke-width="1" stroke-dasharray="3,3"/><line x1="192" y1="104" x2="192" y2="90" stroke="#cbd5e0" stroke-width="1" stroke-dasharray="3,3"/><rect x="15" y="143" width="180" height="22" rx="3" fill="rgba(0,0,0,0.06)"/><rect x="12" y="140" width="180" height="22" rx="3" fill="#e2e8f0" stroke="#94a3b8" stroke-width="1"/><polygon points="12,140 192,140 206,132.3 26,132.3" fill="#cbd5e1" stroke="#94a3b8" stroke-width="0.8"/><polygon points="192,140 206,132.3 206,154.3 192,162" fill="#94a3b8" stroke="#94a3b8" stroke-width="0.8"/><line x1="42" y1="143" x2="42" y2="159" stroke="#94a3b8" stroke-width="1.2" opacity="0.5"/><line x1="77" y1="143" x2="77" y2="159" stroke="#94a3b8" stroke-width="1.2" opacity="0.5"/><line x1="112" y1="143" x2="112" y2="159" stroke="#94a3b8" stroke-width="1.2" opacity="0.5"/><line x1="147" y1="143" x2="147" y2="159" stroke="#94a3b8" stroke-width="1.2" opacity="0.5"/><text x="102" y="155" text-anchor="middle" font-size="9.5" fill="#64748b" font-family="system-ui" font-weight="600">Tablă ușă</text><rect x="15" y="107" width="180" height="22" rx="3" fill="rgba(0,0,0,0.10)"/><rect x="12" y="104" width="180" height="22" rx="3" fill="#f59e0b"/><polygon points="12,104 192,104 206,96.3 26,96.3" fill="white" opacity="0.28" stroke="#b45309" stroke-width="0.8"/><polygon points="192,104 206,96.3 206,118.3 192,126" fill="#b45309" opacity="0.55" stroke="#b45309" stroke-width="0.8"/><circle cx="27" cy="115" r="9" fill="white"/><text x="27" y="119" text-anchor="middle" font-size="11" font-weight="900" fill="#b45309" font-family="system-ui">1</text><text x="42" y="119" font-size="10.5" font-weight="700" fill="white" font-family="system-ui">Antivibrații</text><rect x="15" y="71" width="180" height="22" rx="3" fill="rgba(0,0,0,0.10)"/><rect x="12" y="68" width="180" height="22" rx="3" fill="#3b82f6"/><polygon points="12,68 192,68 206,60.3 26,60.3" fill="white" opacity="0.28" stroke="#1d4ed8" stroke-width="0.8"/><polygon points="192,68 206,60.3 206,82.3 192,90" fill="#1d4ed8" opacity="0.55" stroke="#1d4ed8" stroke-width="0.8"/><circle cx="27" cy="79" r="9" fill="white"/><text x="27" y="83" text-anchor="middle" font-size="11" font-weight="900" fill="#1d4ed8" font-family="system-ui">2</text><text x="42" y="83" font-size="10.5" font-weight="700" fill="white" font-family="system-ui">Spumă acustică</text><rect x="230" y="8" width="82" height="20" rx="10" fill="#3b82f6"/><text x="271" y="22" text-anchor="middle" font-size="9" fill="white" font-family="system-ui" font-weight="800" letter-spacing="0.5">2 STRATURI</text></svg>