<svg xmlns="http://www.w3.org/2000/svg" viewBox="0 0 320 180" width="320" height="180">
  <defs>
    <pattern id="dots" width="16" height="16" patternUnits="userSpaceOnUse">
      <circle cx="2" cy="2" r="1" fill="#e2e8f0"/>
    </pattern>
  </defs>
  <rect width="320" height="180" fill="#f8fafc" rx="10"/>
  <rect width="320" height="180" fill="url(#dots)" rx="10"/>
<text x="10" y="20" font-size="9.5" fill="#94a3b8" font-family="system-ui" font-weight="600">Portbagaj — Podea</text><line x1="12" y1="150" x2="12" y2="138" stroke="#cbd5e0" stroke-width="1" stroke-dasharray="3,3"/><line x1="192" y1="150" x2="192" y2="138" stroke="#cbd5e0" stroke-width="1" stroke-dasharray="3,3"/><line x1="12" y1="118" x2="12" y2="106" stroke="#cbd5e0" stroke-width="1" stroke-dasharray="3,3"/><line x1="192" y1="118" x2="192" y2="106" stroke="#cbd5e0" stroke-width="1" stroke-dasharray="3,3"/><line x1="12" y1="86" x2="12" y2="74" stroke="#cbd5e0" stroke-width="1" stroke-dasharray="3,3"/><line x1="192" y1="86" x2="192" y2="74" stroke="#cbd5e0" stroke-width="1" stroke-dasharray="3,3"/><line x1="12" y1="54" x2="12" y2="42" stroke="#cbd5e0" stroke-width="1" stroke-dasharray="3,3"/><line x1="192" y1="54" x2="192" y2="42" stroke="#cbd5e0" stroke-width="1" stroke-dasharray="3,3"/><rect x="15" y="153" width="180" height="20" rx="3" fill="rgba(0,0,0,0.06)"/><rect x="12" y="150" width="180" height="20" rx="3" fill="#e2e8f0" stroke="#94a3b8" stroke-width="1"/><line x1="42" y1="153" x2="42" y2="168" stroke="#94a3b8" stroke-width="1.2" opacity="0.5"/><line x1="77" y1="153" x2="77" y2="168" stroke="#94a3b8" stroke-width="1.2" opacity="0.5"/><line x1="112" y1="153" x2="112" y2="168" stroke="#94a3b8" stroke-width="1.2" opacity="0.5"/><line x1="147" y1="153" x2="147" y2="168" stroke="#94a3b8" stroke-width="1.2" opacity="0.5"/><text x="102" y="164" text-anchor="middle" font-size="9" fill="#64748b" font-family="system-ui" font-weight="600">Podea portbagaj</text><rect x="15" y="121" width="180" height="20" rx="3" fill="rgba(0,0,0,0.10)"/><rect x="12" y="118" width="180" height="20" rx="3" fill="#f59e0b"/><polygon points="12,118 192,118 204,111 24,111" fill="white" opacity="0.28" stroke="#b45309" stroke-width="0.8"/><polygon points="192,118 204,111 204,131 192,138" fill="#b45309" opacity="0.55" stroke="#b45309" stroke-width="0.8"/><circle cx="27" cy="128" r="8" fill="white"/><text x="27" y="132" text-anchor="middle" font-size="10" font-weight="900" fill="#b45309" font-family="system-ui">1</text><text x="40" y="132" font-size="10" font-weight="700" fill="white" font-family="system-ui">Antivibrații</text><rect x="15" y="89" width="180" height="20" rx="3" fill="rgba(0,0,0,0.10)"/><rect x="12" y="86" width="180" height="20" rx="3" fill="#3b82f6"/><polygon points="12,86 192,86 204,79 24,79" fill="white" opacity="0.28" stroke="#1d4ed8" stroke-width="0.8"/><polygon points="192,86 204,79 204,99 192,106" fill="#1d4ed8" opacity="0.55" stroke="#1d4ed8" stroke-width="0.8"/><circle cx="27" cy="96" r="8" fill="white"/><text x="27" y="100" text-anchor="middle" font-size="10" font-weight="900" fill="#1d4ed8" font-family="system-ui">2</text><text x="40" y="100" font-size="10" font-weight="700" fill="white" font-family="system-ui">Spumă acustică</text><rect x="15" y="57" width="180" height="20" rx="3" fill="rgba(0,0,0,0.10)"/><rect x="12" y="54" width="180" height="20" rx="3" fill="#f59e0b"/><polygon points="12,54 192,54 204,47 24,47" fill="white" opacity="0.28" stroke="#b45309" stroke-width="0.8"/><polygon points="192,54 204,47 204,67 192,74" fill="#b45309" opacity="0.55" stroke="#b45309" stroke-width="0.8"/><circle cx="27" cy="64" r="8" fill="white"/><text x="27" y="68" text-anchor="middle" font-size="10" font-weight="900" fill="#b45309" font-family="system-ui">3</text><text x="40" y="68" font-size="10" font-weight="700" fill="white" font-family="system-ui">Antivibrații</text><rect x="15" y="25" width="180" height="20" rx="3" fill="rgba(0,0,0,0.10)"/><rect x="12" y="22" width="180" height="20" rx="3" fill="#10b981"/><polygon points="12,22 192,22 204,15 24,15" fill="white" opacity="0.28" stroke="#047857" stroke-width="0.8"/><polygon points="192,22 204,15 204,35 192,42" fill="#047857" opacity="0.55" stroke="#047857" stroke-width="0.8"/><circle cx="27" cy="32" r="8" fill="white"/><text x="27" y="36" text-anchor="middle" font-size="10" font-weight="900" fill="#047857" font-family="system-ui">4</text><text x="40" y="36" font-size="10" font-weight="700" fill="white" font-family="system-ui">Absorbant fonic</text><rect x="218" y="8" width="94" height="20" rx="10" fill="#dc2626"/><text x="265" y="22" text-anchor="middle" font-size="9" fill="white" font-family="system-ui" font-weight="800" letter-spacing="0.5">4 STRATURI</text></svg>
